<?xml version="1.0" encoding="UTF-8"?>
<svg width="75px" height="76px" viewBox="0 0 75 76" version="1.1" xmlns="http://www.w3.org/2000/svg" xmlns:xlink="http://www.w3.org/1999/xlink">
    <title>CB6D023F-4CAE-4E34-B17D-6D6601954282</title>
    <defs>
        <polygon id="path-1" points="0 0.0589971312 68.5498619 0.0589971312 68.5498619 67.2363135 0 67.2363135"></polygon>
        <polygon id="path-3" points="0 0.00399902344 74.9999414 0.00399902344 74.9999414 75 0 75"></polygon>
    </defs>
    <g id="App" stroke="none" stroke-width="1" fill="none" fill-rule="evenodd" opacity="0.35">
        <g id="Display/At-capacity,-alt" transform="translate(-1795.000000, -50.000000)">
            <g id="Group-7" transform="translate(1795.000000, 50.000000)">
                <g id="Group-3" transform="translate(0.000000, 7.906201)">
                    <mask id="mask-2" fill="white">
                        <use xlink:href="#path-1"></use>
                    </mask>
                    <g id="Clip-2"></g>
                    <path d="M46.5478418,24.2618994 C47.5333887,24.2618994 48.3331934,25.0593604 48.3331934,26.0462256 C48.3331934,27.0329443 47.5333887,27.8320166 46.5478418,27.8320166 C45.5606836,27.8320166 43.3333887,27.0329443 43.3333887,26.0462256 C43.3333887,25.0593604 45.5606836,24.2618994 46.5478418,24.2618994 L46.5478418,24.2618994 Z M27.3510645,67.2363135 C27.9500391,66.664292 28.4693262,66.0871436 28.8875391,65.5069189 C29.6598047,64.4352393 30.3882715,63.4504248 31.0831934,62.5105811 C34.9511133,57.2835791 37.7448633,53.5073584 40.9178613,43.9274268 C42.3933984,39.4750342 47.4576562,38.1037939 49.0559473,38.0509131 L58.348916,37.2663428 C58.4039941,37.2623877 58.4587793,37.2598975 58.5138574,37.2598975 C61.0092187,37.2598975 61.9807031,35.8977393 62.8385156,34.6948096 L62.9083887,34.5979834 C63.130752,34.2349951 63.4032129,33.8900244 63.6677637,33.5570654 C64.1390039,32.9623389 64.7258203,32.2217139 64.6093652,31.8253271 C64.4743066,31.6170264 63.6002344,31.2752783 63.130752,31.0912939 C62.7595605,30.9464209 62.390127,30.8008154 62.042666,30.6388037 L55.7666895,28.2998877 C55.7079492,28.2780615 55.649502,28.2527197 55.592373,28.2251807 C54.2398828,27.5651221 50.6835352,25.1676123 50.3303613,21.9792334 C49.9683984,19.9502783 48.0257227,18.9925635 46.8928125,18.6010107 C46.8399316,18.5824072 46.7879297,18.5620459 46.7366602,18.5391943 L46.5780176,18.4830908 C43.7955469,17.5277197 42.5243555,16.04896 42.800332,14.089292 C42.8557031,13.6132178 43.0330957,12.1492529 43.1502832,11.3232275 C43.1412012,10.6324072 43.115127,7.85066895 43.1762109,6.14500488 C43.2821191,4.45311035 43.1202539,4.34969238 42.9329004,4.23089355 C42.1191797,3.71336426 41.1654199,4.08689941 40.6705957,4.35789551 C35.9431055,8.73616699 28.0877344,18.5229346 25.4192285,24.1072119 C24.6558984,25.7071143 23.5921289,27.0084814 22.5627832,28.2666357 C21.9684961,28.9924658 21.4079004,29.6777197 20.957168,30.3628271 C14.9951074,39.4327002 5.31161133,37.9939307 0.657509766,37.3038428 C0.445986328,37.2720557 0.223037109,37.2396826 -5.859375e-05,37.2078955 L-5.859375e-05,33.2535498 C0.382558594,33.3024756 0.786123047,33.3601904 1.2337793,33.4261084 C5.67210938,34.0868994 13.0965234,35.1871436 17.6822168,28.2103857 C18.2454492,27.3543311 18.8980371,26.5559912 19.5296777,25.7846045 C20.4516504,24.6574072 21.3216211,23.5929053 21.8814844,22.4186865 C25.0212305,15.8512061 33.5261133,5.63318848 38.0029688,1.48196777 C38.2536035,1.25169434 38.5238672,1.05950684 38.811123,0.906577148 C40.8967676,-0.228676758 43.231582,-0.224575195 45.0399316,0.925327148 C47.3388574,2.39266113 47.1900293,4.76731934 47.0914453,6.33880371 C47.0271387,8.10877441 47.071084,11.3925146 47.071084,11.4250342 C47.0726953,11.529917 47.0653711,11.6340674 47.0499902,11.7374854 C46.9555078,12.377915 46.8041895,13.6148291 46.7227441,14.2945166 C46.935293,14.4303076 47.3129297,14.5914404 47.8515527,14.7761572 C47.9956934,14.8266943 48.1200586,14.872251 48.219375,14.9120947 C51.5404687,16.0750342 53.7216211,18.4375342 54.2064844,21.3963721 C54.2146875,21.4411963 54.2204004,21.4877783 54.2243555,21.5323096 C54.3156152,22.521958 56.0554102,24.059165 57.232998,24.6638525 L63.4871484,26.9954443 C63.5400293,27.0141943 63.5929102,27.0368994 63.6441797,27.0613623 C63.9331934,27.1989111 64.245498,27.3193213 64.5572168,27.4406104 C65.9171777,27.9719092 67.779873,28.700376 68.3715234,30.7259619 C69.0567773,33.0679541 67.606582,34.8982764 66.7399805,35.9911963 C66.5390039,36.2452002 66.3305566,36.5072607 66.2394434,36.6634131 C66.2094141,36.7162939 66.1751367,36.7675635 66.139248,36.8172217 L66.0302637,36.9710303 C65.061123,38.3276221 63.0534082,41.1424658 58.6010156,41.1790869 L49.321377,41.9620459 C49.246377,41.9668799 49.1706445,41.9711279 49.0974023,41.9677588 C48.688125,41.9922217 45.4500879,42.7098486 44.6387109,45.1603857 C41.2686914,55.334458 38.3177637,59.3229346 34.2340723,64.8420264 C33.6743555,65.5989111 33.0860742,66.3979834 32.4762598,67.2363135 L27.3510645,67.2363135 Z" id="Fill-1" fill="#8B959A" mask="url(#mask-2)"></path>
                </g>
                <g id="Group-6" transform="translate(0.000000, 0.142529)">
                    <mask id="mask-4" fill="white">
                        <use xlink:href="#path-3"></use>
                    </mask>
                    <g id="Clip-5"></g>
                    <path d="M63.5641992,0.00399902344 L11.431582,0.00399902344 C5.11166016,0.00399902344 -5.859375e-05,5.11967285 -5.859375e-05,11.4357861 L-5.859375e-05,63.5701611 C-5.859375e-05,69.8862744 5.11166016,75.0000439 11.431582,75.0000439 L63.5641992,75.0000439 C69.8782617,75.0000439 74.9999414,69.8862744 74.9999414,63.5701611 L74.9999414,11.4357861 C74.9999414,5.11967285 69.8782617,0.00399902344 63.5641992,0.00399902344 M63.5641992,3.6661084 C67.850625,3.6661084 71.337832,7.15155762 71.337832,11.4357861 L71.337832,63.5701611 C71.337832,67.8533643 67.850625,71.3379346 63.5641992,71.3379346 L11.431582,71.3379346 C7.1475,71.3379346 3.66205078,67.8533643 3.66205078,63.5701611 L3.66205078,11.4357861 C3.66205078,7.15155762 7.1475,3.6661084 11.431582,3.6661084 L63.5641992,3.6661084" id="Fill-4" fill="#8B959A" mask="url(#mask-4)"></path>
                </g>
            </g>
        </g>
    </g>
</svg>