<?xml version="1.0" encoding="utf-8"?>
<!-- Generator: Adobe Illustrator 16.0.4, SVG Export Plug-In . SVG Version: 6.00 Build 0)  -->
<!DOCTYPE svg PUBLIC "-//W3C//DTD SVG 1.1//EN" "http://www.w3.org/Graphics/SVG/1.1/DTD/svg11.dtd">
<svg version="1.1" id="Layer_1" xmlns="http://www.w3.org/2000/svg" xmlns:xlink="http://www.w3.org/1999/xlink" x="0px" y="0px"
	 width="392px" height="85px" viewBox="6.5 0 392 85" enable-background="new 6.5 0 392 85" xml:space="preserve">
<g>
	<rect x="6.5" fill="none" width="392" height="85"/>
	<g>
		<g>
			<path fill="#21409A" d="M242.704,12.501h-41.707c-5.05,0-9.146,4.095-9.146,9.146v41.708c0,5.053,4.095,9.146,9.146,9.146h41.707
				c5.051,0,9.147-4.094,9.147-9.146V21.647C251.852,16.597,247.756,12.501,242.704,12.501z"/>
			<path fill="#21409A" d="M309.417,12.501h-41.708c-5.052,0-9.146,4.095-9.146,9.146v41.708c0,5.053,4.095,9.146,9.146,9.146
				h41.708c5.05,0,9.146-4.094,9.146-9.146V21.647C318.562,16.597,314.468,12.501,309.417,12.501z"/>
			<path fill="#21409A" d="M376.13,12.501h-41.708c-5.051,0-9.146,4.095-9.146,9.146v41.708c0,5.053,4.094,9.146,9.146,9.146h41.708
				c5.05,0,9.146-4.094,9.146-9.146V21.647C385.276,16.597,381.18,12.501,376.13,12.501z"/>
			<path fill="#21409A" d="M48.901,42.308c1.877-1.474,3.016-3.685,3.016-6.298c0-6.03-4.02-10.051-10.051-10.051H19.757v33.502
				h23.448c6.031,0,10.051-4.021,10.051-10.049C53.256,46.195,51.649,43.715,48.901,42.308z M26.456,31.989h15.41
				c2.01,0,3.35,1.341,3.35,3.351v1.005c0,2.01-1.34,3.35-3.35,3.35v-0.001h-15.41V31.989z M46.556,50.08
				c0,2.01-1.34,3.35-3.35,3.35h-16.75v-7.705h16.75c2.01,0,3.35,1.34,3.35,3.352V50.08z"/>
			<polygon fill="#21409A" points="68.665,25.959 61.966,25.959 61.966,59.461 88.765,59.461 88.765,53.43 68.665,53.43 			"/>
			<path fill="#21409A" d="M119.921,43.381c0,6.031-3.953,10.385-9.381,10.385c-5.426,0-9.379-4.355-9.379-10.385V25.959H94.46
				v17.422c0,9.646,6.834,16.75,16.08,16.75s16.08-7.104,16.08-16.75V25.959h-6.699V43.381z"/>
			<polygon fill="#21409A" points="136.671,59.461 169.501,59.461 169.501,53.43 143.37,53.43 143.37,45.725 162.8,45.725 
				162.8,39.695 143.37,39.695 143.37,31.99 143.37,31.989 169.501,31.989 169.501,25.959 136.671,25.959 			"/>
		</g>
		<path fill="#FFFFFF" d="M206.828,26.518h30.048v5.114l-21.418,21.096h22.056v5.756h-31.324v-5.113l21.352-21.1h-20.712
			L206.828,26.518L206.828,26.518z"/>
		<path fill="#FFFFFF" d="M305.186,42.501c0,9.587-7.033,16.622-16.623,16.622c-9.588,0-16.621-7.035-16.621-16.622
			c0-9.59,7.033-16.623,16.621-16.623S305.186,32.911,305.186,42.501z M298.473,42.501c0-6.075-4.154-10.55-9.91-10.55
			c-5.754,0-9.908,4.475-9.908,10.55c0,6.073,4.154,10.548,9.908,10.548S298.473,48.574,298.473,42.501z"/>
		<path fill="#FFFFFF" d="M371.898,42.501c0,9.587-7.034,16.622-16.622,16.622c-9.589,0-16.622-7.035-16.622-16.622
			c0-9.59,7.032-16.623,16.622-16.623C364.864,25.878,371.898,32.911,371.898,42.501z M365.188,42.501
			c0-6.075-4.156-10.55-9.91-10.55s-9.909,4.475-9.909,10.55c0,6.073,4.155,10.548,9.909,10.548S365.188,48.574,365.188,42.501z"/>
	</g>
</g>
</svg>
